<?xml version="1.0" encoding="UTF-8"?>
<svg id="Layer_1" data-name="Layer 1" xmlns="http://www.w3.org/2000/svg" viewBox="0 0 1000 1000">
  <defs>
    <style>
      .cls-1 {
        fill: #b05e39;
      }

      .cls-1, .cls-2, .cls-3, .cls-4, .cls-5, .cls-6 {
        stroke-width: 0px;
      }

      .cls-2 {
        fill: #9d5739;
      }

      .cls-3 {
        fill: #fcf4f2;
      }

      .cls-4 {
        fill: #fff931;
      }

      .cls-5 {
        fill: #ec452c;
      }

      .cls-6 {
        fill: #e74630;
      }
    </style>
  </defs>
  <g>
    <path class="cls-6" d="M855.04,59.67c24.98,29.49,14.24,66.98,22.59,100.19.64,2.55.67,5.25.99,7.88-1.46,20.28-.56,40.47,2.19,60.6-4.25,16.97-4.67,33.92.45,50.81.97,42.78,1.95,85.55,2.92,128.33-4.9,15.84-4.28,31.72-.27,47.62,0,4.32-.02,8.64-.02,12.95-2.71,4.2-2.71,8.41-.02,12.63,1.4,42.67-3.14,85.36.23,128.03-5.49,27.14-5.55,54.85-5.51,82.17.06,38.35-1.67,76.72-8.34,114.06-6.71,37.52-14.64,49.01-56.2,34.74-12.64-4.34-24.98-9.13-38.67-8.02-24.2-16.03-52.3-21.2-79.69-28.35-18.68-5.3-37.36-10.59-56.04-15.89,0,0-1.02-.46-1.02-.46-5.82-.8-11.65-1.61-17.47-2.41-9.05-8.17-20.45-11.43-31.79-14.2-68.42-16.75-134.38-41.6-202.14-60.41-28.63-7.95-56.18-20.48-86.49-21.94-30.18-16.96-63.49-24.33-96.93-31.28-4.27-1.15-8.54-2.29-12.81-3.44-2.27-3.5-5.34-5.64-9.68-5.64-8.49-2.41-16.98-4.82-25.47-7.23-1.15-3.12-3.24-5.14-6.62-5.68-2.25-3.38-4.51-6.77-6.76-10.15-.94-2.12-1.89-4.24-2.83-6.36-.41-7.45-.83-14.9-1.23-22.35-.7-2.11-1.41-4.22-2.12-6.32-.11-2.19-.23-4.38-.34-6.56.39-7.55,1.64-15.21-2.83-22.14-.35-29.83-.71-59.67-1.07-89.5.37-41.5.4-83,1.28-124.49.47-22.31,3.05-44.45,11.1-65.63,3.69-9.72,9.98-15.65,20.16-18.61,42.92-12.45,85.81-25.03,128.54-38.13,77.43-23.74,154.65-48.2,232.13-71.76,74.5-22.65,149.27-44.39,223.83-66.86,22.99-6.93,45.68-14.86,68.44-22.54,8.19-2.77,16.49-4.4,25.13-4.5,4.14.29,8.28.57,12.42.86ZM812.46,645.5c.37,0,.73-.02,1.1-.03-1.33-23.92-1.58-47.96-4.28-71.72-3.35-29.52-5.58-59.57-19.09-86.91-13.29-26.9-31.64-29.39-52.42-7.39-13.38,14.16-21.92,31.37-30.25,48.68-9.7,20.15-19.21,40.41-29.48,60.28-4.06,7.85-9,18.5-19.29,16.51-11.51-2.22-10.63-14.71-11.6-23.82-2.02-19.05-2.75-38.23-4.46-57.32-1.33-14.87-3.42-29.67-10.48-43.2-9.01-17.27-24.2-20.83-39.76-9-11.79,8.97-19.08,21.46-25.31,34.5-10.11,21.13-19.39,42.67-29.94,63.57-5.16,10.23-10.95,23.51-24.78,21.41-13.16-1.99-13.51-16.48-16.45-26.85-4.2-14.82-6.12-30.33-14.58-43.73-10.81-17.13-28.27-19.68-43.32-5.94-10.38,9.48-17.07,21.71-24.17,33.64-4.61,7.75-9.2,15.75-15.19,22.39-8.58,9.51-15.49,7.89-20.28-3.91-3.64-8.98-4.44-18.6-5.29-28.16-1.51-16.96-2.3-34.05-7.2-50.51-3.14-10.54-7.95-20.48-20.03-22.68-12.61-2.3-19.4,6.65-25.52,15.73-7.21,10.69-11.84,22.59-16.51,34.51-5.05,12.87-9.88,25.95-16.38,38.11-5.66,10.59-13.41,10.05-18.62-.77-3.19-6.62-5-14.02-6.6-21.25-3.34-15.06-5.63-30.39-11.32-44.83-3.71-9.41-7.15-19.94-19.1-21.51-12.91-1.7-19.04,8.38-24.52,17.38-16.28,26.76-24.53,56.49-31.21,86.77-2.32,10.5,1.38,16.43,11.77,18.54,9.95,2.02,18.27,1.17,20.68-11.04,2.06-10.44,4.01-20.93,6.79-31.2,1.89-6.98,3.14-16.22,12.29-16.77,9.05-.54,11.91,8.16,14.27,15.06,4.82,14.09,8.54,28.54,13.21,42.68,3.04,9.19,6.73,18.64,18.32,19.86,12.53,1.32,18.01-8.11,22.64-17.1,6.08-11.82,10.59-24.43,16.64-36.27,3.23-6.32,6.49-15.17,15.75-13.34,8.11,1.6,8.42,10.17,9.59,16.89,2.2,12.58,3.71,25.28,6.02,37.84,6.04,32.88,26.1,50.55,56.27,23.03.78-.71,1.73-1.25,2.65-1.8,26.68-16.02,54.22-8.71,69.39,18.46,1.56,2.79,2.69,5.81,4.25,8.59,13.1,23.27,32.13,25.81,50.54,6.64,11.25-11.71,18.17-26.19,25.6-40.35,6.18-11.79,11.87-23.9,18.99-35.1,4.98-7.83,10.62-17.77,22.1-15.37,10.3,2.15,12.62,12.34,14.53,21.14,1.91,8.8,2.43,17.89,3.59,26.85,3.25,25.18.8,51.46,13.4,74.89,10.51,19.56,31.15,22.09,46.15,5.65,9.42-10.32,15.85-22.65,21.57-35.35,8.74-19.41,17.1-39.03,26.71-58.02,5.64-11.14,11.94-25.98,27.4-22.21,14.83,3.63,14.58,19.22,15.32,31.94,1.76,30.48-2.99,60.53-6.36,90.68-3.29,29.45.28,33.7,30.2,38.01,3.17.46,6.38.63,9.57.87,11.4.86,16.7-4.17,16.56-15.8-.29-23.96-.09-47.92-.09-71.87ZM811.81,368.9c-.62,0-1.23,0-1.85,0,0-16.49,1.09-33.07-.23-49.45-2.64-32.88-5.52-65.95-17.04-97.2-5.99-16.25-11.96-35.25-33.39-36.63-22.19-1.43-32.4,15.94-41.55,32.46-14.04,25.36-21.05,53.39-29.79,80.76-4.86,15.21-9.48,30.56-17.34,44.58-3.11,5.55-6.85,11.78-14.65,10.01-7.07-1.6-7.85-8.64-8.17-14.18-.8-13.8-.49-27.65-.7-41.48-.28-19.13,1.67-38.41-3.11-57.25-6-23.64-24.17-29.71-43.55-14.7-8.16,6.32-13.88,14.63-18.93,23.51-12.98,22.83-20.95,47.73-30.33,72.05-5.94,15.41-11.58,31.05-21.74,44.31-5.12,6.68-11.01,14.4-20.93,11.99-8.74-2.13-11.55-10.34-13.76-18.2-3.17-11.27-5.6-22.8-9.53-33.8-3.73-10.43-7.52-21.95-20.84-24.04-14.02-2.2-23.68,5.69-30.67,16.38-9.89,15.14-18.43,31.16-28.22,46.37-5.57,8.66-10.04,21.69-22.71,19.52-13.56-2.32-13.31-16.41-15.43-27.09-3.51-17.72-3.77-36.05-9.89-53.29-2.76-7.78-6.38-15.01-15.69-16.33-9.77-1.38-16.17,4.15-21.25,11.55-7.66,11.15-11.51,23.9-15.53,36.62-5.29,16.73-10.74,33.43-16.71,49.93-2.35,6.49-6.13,13.54-14.51,12.71-7.64-.75-9.03-8.24-10.99-14.23-5.78-17.7-11.01-35.58-17.15-53.15-2.67-7.65-7.52-14.83-16.57-15.66-9.53-.88-13.99,6.69-17.93,13.69-18.5,32.94-27.11,69.23-35.62,105.54-.89,3.81-.67,7.15,3.58,9.43,11.21,6,28.59-1.02,32.09-13.66,3.27-11.79,5.59-23.83,8.74-35.65,1.66-6.24,4.28-13.23,11.76-13.45,7.81-.23,9.79,7.33,11.99,13.21,5.02,13.44,7.87,27.74,15.49,40.13,7.85,12.75,18.7,13.85,28.76,2.83,7.64-8.37,12.24-18.65,16.49-29.04,4.03-9.85,7.8-19.82,12.28-29.47,2.58-5.56,4.57-13.47,12.47-12.68,8.71.87,9.04,9.45,10.59,15.99,3.3,13.97,5.01,28.41,9.49,41.97,7.93,23.96,25.84,27.8,43.95,10.16,8.39-8.17,15.49-17.63,25.22-24.45,19.65-13.78,38.2-11.73,54.06,6.3,4.57,5.2,8.39,11.05,13,16.21,15.16,16.99,30.42,17.39,46.53,1.03,11.01-11.18,18.24-24.86,24.4-39.11,9.72-22.47,19.12-45.09,29.26-67.37,2.77-6.08,6.78-13.73,14.83-12.65,8.88,1.19,10.8,9.75,11.51,17.2,2.22,23.29,3.84,46.64,5.76,69.97.75,9.07,2.54,17.91,6.59,26.17,9.97,20.33,26.18,23.35,42.07,7.44,4.85-4.85,8.99-10.56,12.71-16.35,12.43-19.38,20.67-40.81,29.96-61.73,7.32-16.5,13.12-33.93,25.07-47.94,9.76-11.44,21.33-9.6,27.33,4.15,4.55,10.45,5.39,21.76,4.77,32.95-1.37,24.44-3.39,48.84-5.05,73.26-1.39,20.38,2.2,24.77,20.67,25.69,21.54,1.08,29.45-4.81,29.84-23.11.37-17.55.08-35.12.08-52.68ZM842.15,115.32c.84-22.93-4.17-26.66-23.4-20.53-16.29,5.19-32.67,10.11-48.92,15.43-194.01,63.56-390.27,119.67-586.54,175.78-8.49,2.43-25.15.67-21.55,14.73,3.14,12.27,16.77,4.35,25.22,2.39,212.45-49.21,423.55-103.64,633.51-162.53,15.99-4.49,22.2-12.9,21.68-25.27ZM842.28,794.62c.25-17.78-5.19-25.28-22.26-29.57-36.77-9.24-73.65-18.1-110.4-27.4-113.37-28.7-226.79-57.18-340.01-86.45-62.04-16.04-123.67-33.65-185.6-50.11-7.98-2.12-19.98-8.18-23.26,4.14-2.74,10.31,9.75,10.59,16.82,12.83,212.82,67.37,427.21,129.57,641.42,192.36,17.69,5.18,23.05,1.6,23.29-15.8ZM465.6,497.11c13.81-1.35,27.73-2.06,41.41-4.23,11.33-1.81,17.21-10.07,14.14-20.91-3.36-11.85-12.61-6.71-19.74-3.57-25.98,11.46-51.88,10.89-77.9.37-7.81-3.16-17.08-9.02-20.97,3.73-3.65,11.96,4.39,17.51,15.14,19.73,15.78,3.26,31.79,4.05,47.93,4.89ZM421.09,293.54c19.17-.75,34.48-2.97,49.37-7.26,12.77-3.68,25.58-7.51,37.84-12.57,9.88-4.08,13.4-13.66,8.67-22.52-5.66-10.6-13.46-3.04-20.13.83-6.89,4-13.63,8.28-20.73,11.87-18.96,9.6-39.12,8.9-59.48,6.41-6.67-.81-13.52-.44-14.57,8.25-1,8.24,3.58,13,11.56,14.37,3.65.62,7.4.61,7.47.61Z"/>
    <path class="cls-1" d="M881.25,279.17c-5.12-16.89-4.7-33.84-.45-50.81,5.51,16.89,4.79,33.83.45,50.81Z"/>
    <path class="cls-1" d="M883.91,455.11c-4.01-15.9-4.63-31.78.27-47.62,4.69,15.9,5.13,31.78-.27,47.62Z"/>
    <path class="cls-1" d="M883.87,480.69c-2.69-4.21-2.69-8.43.02-12.63,3.44,4.22,3.44,8.43-.02,12.63Z"/>
    <path class="cls-1" d="M133.09,560.84c4.47,6.93,3.22,14.59,2.83,22.14-8.77-6.39-6.42-14.19-2.83-22.14Z"/>
    <path class="cls-1" d="M181.29,647.64c4.33,0,7.4,2.14,9.68,5.64-6.3,3.35-8.04-1.06-9.68-5.64Z"/>
    <path class="cls-1" d="M136.26,589.54c.71,2.11,1.42,4.22,2.12,6.32-2.83-1.41-3.94-3.38-2.12-6.32Z"/>
    <path class="cls-1" d="M139.62,618.22c.94,2.12,1.89,4.24,2.83,6.36-3.26-1.1-5.01-2.86-2.83-6.36Z"/>
    <path class="cls-1" d="M149.21,634.73c3.37.55,5.47,2.57,6.62,5.68-3.19-.76-5.39-2.65-6.62-5.68Z"/>
    <path class="cls-3" d="M812.46,645.5c0,23.96-.21,47.92.09,71.87.14,11.63-5.15,16.66-16.56,15.8-3.19-.24-6.41-.42-9.57-.87-29.92-4.31-33.49-8.56-30.2-38.01,3.37-30.15,8.12-60.2,6.36-90.68-.74-12.73-.48-28.32-15.32-31.94-15.46-3.78-21.76,11.06-27.4,22.21-9.61,18.98-17.96,38.6-26.71,58.02-5.72,12.7-12.15,25.03-21.57,35.35-15,16.44-35.64,13.91-46.15-5.65-12.59-23.43-10.14-49.7-13.4-74.89-1.16-8.96-1.68-18.05-3.59-26.85-1.91-8.8-4.23-18.99-14.53-21.14-11.49-2.4-17.13,7.54-22.1,15.37-7.12,11.2-12.81,23.32-18.99,35.1-7.42,14.16-14.35,28.64-25.6,40.35-18.42,19.17-37.44,16.63-50.54-6.64-1.57-2.78-2.7-5.8-4.25-8.59-15.17-27.17-42.71-34.48-69.39-18.46-.91.55-1.87,1.09-2.65,1.8-30.18,27.52-50.23,9.85-56.27-23.03-2.31-12.56-3.82-25.26-6.02-37.84-1.17-6.71-1.48-15.28-9.59-16.89-9.26-1.83-12.52,7.02-15.75,13.34-6.05,11.83-10.56,24.45-16.64,36.27-4.63,8.99-10.11,18.41-22.64,17.1-11.59-1.22-15.28-10.67-18.32-19.86-4.67-14.14-8.4-28.59-13.21-42.68-2.36-6.9-5.22-15.6-14.27-15.06-9.15.55-10.4,9.79-12.29,16.77-2.77,10.26-4.73,20.76-6.79,31.2-2.41,12.21-10.74,13.05-20.68,11.04-10.39-2.1-14.09-8.04-11.77-18.54,6.68-30.28,14.93-60.01,31.21-86.77,5.48-9.01,11.62-19.08,24.52-17.38,11.95,1.57,15.39,12.11,19.1,21.51,5.69,14.44,7.98,29.77,11.32,44.83,1.61,7.23,3.42,14.63,6.6,21.25,5.21,10.82,12.95,11.36,18.62.77,6.5-12.16,11.33-25.24,16.38-38.11,4.68-11.92,9.31-23.82,16.51-34.51,6.12-9.07,12.9-18.03,25.52-15.73,12.08,2.2,16.89,12.14,20.03,22.68,4.9,16.46,5.69,33.55,7.2,50.51.85,9.56,1.65,19.18,5.29,28.16,4.79,11.8,11.7,13.42,20.28,3.91,5.99-6.64,10.58-14.64,15.19-22.39,7.1-11.93,13.79-24.16,24.17-33.64,15.05-13.74,32.52-11.19,43.32,5.94,8.45,13.4,10.38,28.91,14.58,43.73,2.94,10.38,3.28,24.86,16.45,26.85,13.84,2.09,19.63-11.19,24.78-21.41,10.54-20.91,19.83-42.44,29.94-63.57,6.23-13.04,13.52-25.53,25.31-34.5,15.56-11.83,30.75-8.27,39.76,9,7.06,13.54,9.15,28.33,10.48,43.2,1.71,19.09,2.44,38.27,4.46,57.32.97,9.11.09,21.6,11.6,23.82,10.29,1.99,15.23-8.66,19.29-16.51,10.27-19.86,19.78-40.12,29.48-60.28,8.33-17.32,16.87-34.52,30.25-48.68,20.78-22,39.13-19.51,52.42,7.39,13.51,27.33,15.74,57.38,19.09,86.91,2.69,23.76,2.94,47.8,4.28,71.72-.37,0-.73.02-1.1.03ZM463.39,562.18c-2.91-6.11-.02-19.24-10.62-19.11-8.82.11-10.71,12.14-12.42,20.31-1.98,9.48,5.57,10.09,12.14,10.28,6.72.2,11.55-2.3,10.89-11.47Z"/>
    <path class="cls-3" d="M811.81,368.9c0,17.56.29,35.13-.08,52.68-.39,18.3-8.29,24.19-29.84,23.11-18.47-.92-22.06-5.31-20.67-25.69,1.66-24.42,3.68-48.82,5.05-73.26.63-11.19-.21-22.51-4.77-32.95-5.99-13.75-17.57-15.59-27.33-4.15-11.95,14.01-17.74,31.44-25.07,47.94-9.29,20.92-17.53,42.35-29.96,61.73-3.71,5.79-7.86,11.5-12.71,16.35-15.89,15.91-32.1,12.89-42.07-7.44-4.05-8.26-5.84-17.1-6.59-26.17-1.93-23.32-3.54-46.67-5.76-69.97-.71-7.45-2.62-16.01-11.51-17.2-8.06-1.08-12.07,6.57-14.83,12.65-10.14,22.28-19.54,44.9-29.26,67.37-6.17,14.25-13.4,27.93-24.4,39.11-16.11,16.37-31.37,15.97-46.53-1.03-4.61-5.16-8.43-11.02-13-16.21-15.85-18.03-34.41-20.08-54.06-6.3-9.73,6.82-16.83,16.28-25.22,24.45-18.11,17.64-36.02,13.81-43.95-10.16-4.48-13.55-6.19-28-9.49-41.97-1.54-6.53-1.88-15.11-10.59-15.99-7.9-.79-9.9,7.12-12.47,12.68-4.48,9.65-8.25,19.62-12.28,29.47-4.25,10.39-8.85,20.67-16.49,29.04-10.06,11.03-20.91,9.93-28.76-2.83-7.62-12.39-10.47-26.69-15.49-40.13-2.19-5.87-4.18-13.44-11.99-13.21-7.48.22-10.09,7.22-11.76,13.45-3.16,11.82-5.48,23.86-8.74,35.65-3.5,12.64-20.88,19.67-32.09,13.66-4.25-2.28-4.47-5.62-3.58-9.43,8.51-36.3,17.12-72.6,35.62-105.54,3.93-7,8.4-14.57,17.93-13.69,9.04.83,13.89,8.01,16.57,15.66,6.14,17.57,11.37,35.45,17.15,53.15,1.96,5.99,3.35,13.48,10.99,14.23,8.38.83,12.16-6.22,14.51-12.71,5.98-16.5,11.42-33.19,16.71-49.93,4.02-12.72,7.87-25.47,15.53-36.62,5.08-7.4,11.48-12.93,21.25-11.55,9.32,1.32,12.93,8.55,15.69,16.33,6.11,17.25,6.37,35.57,9.89,53.29,2.12,10.69,1.87,24.77,15.43,27.09,12.68,2.17,17.14-10.86,22.71-19.52,9.79-15.21,18.33-31.22,28.22-46.37,6.98-10.69,16.64-18.59,30.67-16.38,13.32,2.09,17.11,13.61,20.84,24.04,3.93,11,6.36,22.52,9.53,33.8,2.21,7.85,5.02,16.07,13.76,18.2,9.92,2.41,15.81-5.31,20.93-11.99,10.16-13.26,15.8-28.9,21.74-44.31,9.38-24.32,17.35-49.22,30.33-72.05,5.05-8.88,10.77-17.19,18.93-23.51,19.38-15.01,37.55-8.94,43.55,14.7,4.78,18.84,2.83,38.12,3.11,57.25.2,13.83-.1,27.69.7,41.48.32,5.54,1.1,12.57,8.17,14.18,7.8,1.77,11.54-4.46,14.65-10.01,7.86-14.02,12.48-29.37,17.34-44.58,8.74-27.36,15.75-55.4,29.79-80.76,9.15-16.52,19.36-33.89,41.55-32.46,21.43,1.38,27.39,20.38,33.39,36.63,11.52,31.24,14.4,64.32,17.04,97.2,1.32,16.39.23,32.96.23,49.45.62,0,1.23,0,1.85,0ZM449.46,372.33c8.3-.51,16.23-1.84,14.16-12.46-1.51-7.77-1.29-20.81-11.18-19.72-10.42,1.15-12.84,14.64-14.89,24.03-1.85,8.49,6.71,7.34,11.91,8.15Z"/>
    <path class="cls-4" d="M842.15,115.32c.51,12.37-5.69,20.78-21.68,25.27-209.96,58.89-421.06,113.32-633.51,162.53-8.45,1.96-22.08,9.88-25.22-2.39-3.59-14.05,13.06-12.3,21.55-14.73,196.27-56.11,392.53-112.22,586.54-175.78,16.25-5.32,32.62-10.24,48.92-15.43,19.23-6.13,24.24-2.4,23.4,20.53Z"/>
    <path class="cls-4" d="M842.28,794.62c-.24,17.4-5.61,20.98-23.29,15.8-214.21-62.79-428.6-124.99-641.42-192.36-7.06-2.24-19.56-2.52-16.82-12.83,3.28-12.31,15.28-6.26,23.26-4.14,61.93,16.46,123.56,34.08,185.6,50.11,113.22,29.27,226.64,57.75,340.01,86.45,36.76,9.3,73.63,18.16,110.4,27.4,17.07,4.29,22.5,11.78,22.26,29.57Z"/>
    <path class="cls-3" d="M465.6,497.11c-16.15-.83-32.15-1.62-47.93-4.89-10.75-2.22-18.79-7.77-15.14-19.73,3.89-12.75,13.16-6.88,20.97-3.73,26.02,10.52,51.92,11.09,77.9-.37,7.12-3.14,16.38-8.28,19.74,3.57,3.07,10.84-2.8,19.11-14.14,20.91-13.68,2.18-27.59,2.89-41.41,4.23Z"/>
    <path class="cls-3" d="M421.09,293.54c-.07,0-3.82.01-7.47-.61-7.98-1.37-12.56-6.13-11.56-14.37,1.05-8.68,7.9-9.06,14.57-8.25,20.36,2.48,40.52,3.19,59.48-6.41,7.1-3.59,13.84-7.87,20.73-11.87,6.67-3.87,14.47-11.43,20.13-.83,4.73,8.85,1.21,18.44-8.67,22.52-12.26,5.06-25.07,8.89-37.84,12.57-14.89,4.28-30.2,6.51-49.37,7.26Z"/>
    <path class="cls-2" d="M639.63,787.43l-.93.78s-.1-1.24-.09-1.24c0,0,1.03.46,1.03.46Z"/>
    <path class="cls-6" d="M463.39,562.18c.66,9.17-4.17,11.67-10.89,11.47-6.58-.19-14.12-.79-12.14-10.28,1.7-8.16,3.59-20.2,12.42-20.31,10.6-.13,7.71,13,10.62,19.11Z"/>
    <path class="cls-6" d="M449.46,372.33c-5.2-.8-13.76.34-11.91-8.15,2.05-9.39,4.47-22.88,14.89-24.03,9.89-1.1,9.67,11.95,11.18,19.72,2.07,10.62-5.86,11.95-14.16,12.46Z"/>
  </g>
  <g>
    <path class="cls-5" d="M444.21,808.07c2.4-6.43,4.68-12.91,7.24-19.28,2.2-5.46,2.48-13.45,11.84-11.01,7.39,1.92,9.23,7.79,9.04,14.59-.41,14.6-.59,29.22-1.54,43.79-.33,5.06-.05,12.82-8.1,11.94-7.25-.79-6.56-7.74-6.65-13.33-.05-3.37-.32-6.74-.57-11.66-9.03,3.54-13.67,32.9-25.93,4.91-.18-.41-1.08-.64-1.68-.72-18.69-2.4-18.83-2.4-17.28-21.57.78-9.7,2.11-19.36,3.29-29.03.57-4.6-.48-10.88,6.56-10.94,6.58-.06,12.31,2.34,13.66,10.18,1.86,10.77,3.97,21.49,5.97,32.23,1.39-.03,2.77-.06,4.16-.09Z"/>
    <path class="cls-5" d="M566.21,838.59c9.33-6.44-2.96-24.86,11.5-22.77,13.33,1.92,7.09,17.48,6.9,26.86-.26,13.23,4.66,34.32-7.93,37.44-15.43,3.82-12.04-19.61-20.27-28.91-.76-.86-2.19-1.13-3.27-1.65-8.19,5.21,2.55,24.16-12.17,21.37-14.6-2.76-5.36-17.28-5.7-26.65-.35-9.68.25-19.41.91-29.09.29-4.37-1.85-10.78,5.17-11.69,5.27-.68,9.14,3.02,11.46,7.59,4.59,9.03,8.88,18.2,13.4,27.5Z"/>
    <path class="cls-5" d="M315.11,773.95c-7.94,7.97,2.89,25.64-12.02,23.88-12.49-1.48-5.71-16.26-6.15-25.13-.52-10.36.83-20.82,1.6-31.22.3-4.04.13-9.3,4.76-10.57,5.13-1.41,9.95,1.78,12.16,6.24,4.88,9.82,8.89,20.07,13.22,30.09,7.33-1.33,4.22-6.61,5.34-9.97,1.76-5.29-3.69-14.92,5.4-15.3,9.43-.39,8.84,8.61,8.34,15.78-.87,12.48-1.29,25.01-2.59,37.44-.54,5.16-.63,12.11-8.28,12.43-5.76.24-7.83-4.84-9.98-9.32-3.8-7.92-4.63-17.32-11.8-24.35Z"/>
    <path class="cls-5" d="M400.37,803.55c0,4.18.03,8.35-.02,12.51-.04,4.12.6,9.27-4.95,9.87-5.36.59-9.15-2.42-10.08-8.26-2.67-16.73-7.48-25.29-19.58-4.92-2.04,3.44-5.03,4.46-8.84,3-4.91-1.88-5.75-5.77-4.64-10.16,3.92-15.47,7.97-30.91,12.1-46.33,1.89-7.06,7.09-7.5,13.18-6.29,8.27,1.64,17.14,2.48,18.54,13.33,1.6,12.39,2.87,24.81,4.27,37.24Z"/>
    <path class="cls-5" d="M708.57,908.73c1.22-11.95,1.16-21.19,3.36-29.85,1.93-7.62-6.8-22.12,10.6-21.2,18.39.98,31.29,14.1,29.42,28.6-.68,5.28-4.7,10.01-.98,15.8,5.29,8.23,7.53,17.55-.57,24.72-10.1,8.93-21.09,2.2-31.48-1-10.1-3.11-11.76-10.83-10.35-17.06ZM741.87,910.27c-.79-6.43-5.75-8.64-11.19-10.15-4.73-1.32-6.03,1.69-6.28,5.54-.37,5.73,2.57,8.98,8.03,10.04,4.52.88,8.17-.07,9.44-5.43ZM739.68,879.85c-1.11-4.38-4.01-7.16-8.42-7.43-5.65-.35-6.54,3.94-6.06,8.15.56,4.89,4.23,6.73,8.73,6.11,3.59-.5,6.11-2.61,5.75-6.83Z"/>
    <path class="cls-5" d="M669.2,878.57c0,2.37.52,5.92-.11,9.26-1.27,6.78,4.8,17.55-5.52,19.4-9.77,1.76-7.44-9.05-9.57-15.09-3.54-10.03-9.21-12.09-15.69-2.33-3,4.52-4.11,11.18-11.83,7.38-7.12-3.51-3.95-9.56-2.73-14.59,2.95-12.08,6.22-24.1,9.8-36.02,1.96-6.53,3.77-14.35,13.35-12.54,8.73,1.65,18.65,2.72,20.01,14.47,1.11,9.6,1.5,19.29,2.29,30.05ZM651.26,849.53c-6.23,1.12-6.15,6.46-7.25,10.9-1.02,4.09-1.73,8.55,3.83,9.77,6.76,1.49,8.16-3.19,8.21-8.43.05-4.62.95-9.77-4.79-12.24Z"/>
    <path class="cls-5" d="M138.11,724.82c8.45-11.28,9.5-20.9,11.71-30.03,1.14-4.68,1.32-10.39,8.5-9.08,5.72,1.05,8.73,4.92,6.91,10.59-5.1,15.86-9.4,32.16-16.46,47.13-5.41,11.47-15.83,6.13-19.37-1.38-8.92-18.91-11.22-39.96-14.88-60.44-.67-3.73,1.21-6.88,5.71-6.82,6.66.1,10.08,4.06,11.16,10.23,2.1,11.99,4.06,24,6.71,39.8Z"/>
    <path class="cls-5" d="M197.38,747.77c.85-8.99,2.91-18.06,2.31-26.94-1.45-21.35,9.81-20.77,24.5-15.38,4.97,1.83,12.44,2.08,11.76,9.41-.64,6.97-7.39,4.18-11.84,4.72-2.71.33-5.75.43-6.31,3.98-.71,4.49,3.08,5.72,5.95,7.36,3.58,2.05,8.61,3.49,7.78,8.48-1.32,7.91-7.14,4.01-11.51,3.26-4.35-.75-6.58,1.27-7,5.34-.38,3.71.97,6.83,4.46,8.6,4.32,2.19,9.06,3.75,12.95,6.51,3.02,2.14,3.12,6.08,1.47,9.49-1.38,2.84-3.95,3.02-6.96,2.99-18.24-.18-28.46-10.38-27.56-27.82Z"/>
    <path class="cls-5" d="M842.46,932.01c0-4.85-.41-9.75.1-14.55.71-6.6-2.41-16.14,5.24-18.68,9.4-3.12,18.74,2.74,27.56,6.61,2.55,1.12,4,3.91,2.81,6.98-1.64,4.26-5.27,3.5-8.73,3.23-3.75-.29-8.7-3.44-10.26,2.8-1.35,5.41,3.47,6.75,7.1,8.62,4.26,2.2,9.83,3.85,8.03,10.23-1.66,5.88-6.61,3.17-10.45,2.77-4.1-.43-6.64,1.27-7.53,5.23-.89,3.98,1.16,6.52,4.43,8.4,5.99,3.44,17.07,1.35,15.85,12.69-.72,6.64-7.03,6.14-11.63,4.48-9.59-3.48-23.88-1.28-23.41-18.01.19-6.93.03-13.87.03-20.81.29,0,.59,0,.88,0Z"/>
    <path class="cls-5" d="M258.84,754.46c-.64-8.27,5.93-22.15-10.11-29.19-1.25-.55-1.82-6.78-1.05-7.18,11.19-5.81,21.13,1.66,31.53,3.86,5.08,1.07,11.22,2.59,11.47,9.94.02.64-.29,1.78-.68,1.89-25.68,7.34-12.4,28.85-16.09,44.14-1.06,4.38.68,10.78-6.63,10.57-5.75-.16-8.31-4.44-8.41-9.94-.12-6.92-.03-13.84-.03-24.09Z"/>
    <path class="cls-5" d="M806.65,924.75c.77-12.05,5.76-25.34-10.5-32.07-3.49-1.44-4.49-5.6-2.68-9,1.99-3.74,5.68-3.08,9.15-1.9,8.57,2.91,17.52,5.03,25.63,8.89,7.67,3.65,15.03,8.74.15,13.9-13.47,4.67-4.86,16.76-7.62,25.09-2.79,8.42,6.01,24.39-6.27,24.5-15.07.14-6.45-16.14-8.21-25.25-.25-1.31.21-2.76.36-4.15Z"/>
    <path class="cls-5" d="M190.29,719.54c-1.17,11.16-2.12,21.49-3.4,31.79-.59,4.73-.97,10.41-8.09,9.41-4.99-.7-6.74-4.76-6.41-9.19,1.31-17.24,2.85-34.46,4.49-51.66.34-3.59,2.02-6.8,6.39-6.57,3.84.2,6.72,2.45,6.92,6.34.36,6.88.1,13.8.1,19.89Z"/>
    <path class="cls-5" d="M782.73,906.94c-4.35,11.3,5.26,32.42-10.49,32.34-11.86-.06-5.54-21.23-4.82-32.52.69-10.78-6.08-30.83,8.72-30.45,12.92.33,2.94,20.02,6.59,30.62Z"/>
    <path class="cls-5" d="M522.72,825.33c0,2.51.16,3.26-.02,3.9-3.19,10.79,5.83,31.36-9.22,30.58-13.01-.68-6.09-21.2-5.23-32.48.81-10.63-3.39-30.83,7.82-30.16,14.87.89,2.94,19.72,6.65,28.16Z"/>
  </g>
</svg>