<?xml version="1.0" encoding="UTF-8"?>
<svg id="Layer_1" data-name="Layer 1" xmlns="http://www.w3.org/2000/svg" viewBox="0 0 1000 1000">
  <defs>
    <style>
      .cls-1 {
        fill: #b05e39;
      }

      .cls-1, .cls-2, .cls-3, .cls-4, .cls-5, .cls-6, .cls-7, .cls-8 {
        stroke-width: 0px;
      }

      .cls-2 {
        fill: #9d5739;
      }

      .cls-3 {
        fill: #fcf4f2;
      }

      .cls-4 {
        fill: #f489cb;
      }

      .cls-5 {
        fill: #fff931;
      }

      .cls-6 {
        fill: #fff;
      }

      .cls-7 {
        fill: #ec452c;
      }

      .cls-8 {
        fill: #e74630;
      }
    </style>
  </defs>
  <path class="cls-4" d="M538.44,989.7c-278.75-.36-498.53-203.55-532.81-479.97C-18.51,314.99,87.32,76.05,385.58,31.76c181.44-26.94,345.41,17.24,477.87,149.22,108.13,107.74,144.78,242.61,131.71,391.96-9.44,107.89-49.43,203.77-124.15,283.21-82.56,87.77-199.11,133.73-332.55,133.56Z"/>
  <path class="cls-5" d="M531.81,902.74c-230.62-.3-412.46-168.41-440.82-397.1-19.98-161.12,67.58-358.81,314.35-395.45,150.11-22.29,285.77,14.26,395.36,123.46,89.46,89.14,119.78,200.72,108.97,324.29-7.81,89.27-40.89,168.58-102.72,234.31-68.31,72.62-164.74,110.64-275.14,110.5Z"/>
  <path class="cls-6" d="M526.86,840.62c-194.75-.25-348.31-142.22-372.26-335.34-16.87-136.06,57.07-303,265.46-333.95,126.77-18.82,241.33,12.04,333.87,104.26,75.55,75.28,101.15,169.5,92.02,273.85-6.6,75.38-34.53,142.36-86.74,197.87-57.68,61.32-139.11,93.43-232.35,93.31Z"/>
  <g>
    <g>
      <path class="cls-8" d="M648.95,286.52c12.59,14.86,7.18,33.75,11.38,50.49.32,1.28.34,2.65.5,3.97-.73,10.22-.28,20.4,1.1,30.54-2.14,8.55-2.35,17.09.23,25.61.49,21.56.98,43.11,1.47,64.67-2.47,7.98-2.16,15.99-.14,24,0,2.18,0,4.35-.01,6.53-1.37,2.12-1.37,4.24,0,6.36.7,21.5-1.58,43.01.11,64.52-2.77,13.67-2.8,27.64-2.78,41.41.03,19.33-.84,38.66-4.21,57.48-3.38,18.91-7.38,24.7-28.32,17.51-6.37-2.19-12.59-4.6-19.49-4.04-12.2-8.08-26.36-10.68-40.16-14.28-9.41-2.67-18.83-5.34-28.24-8.01,0,0-.51-.23-.51-.23-2.94-.41-5.87-.81-8.81-1.22-4.56-4.12-10.31-5.76-16.02-7.16-34.48-8.44-67.72-20.96-101.87-30.45-14.43-4.01-28.31-10.32-43.59-11.06-15.21-8.55-31.99-12.26-48.85-15.76-2.15-.58-4.3-1.16-6.46-1.73-1.15-1.76-2.69-2.84-4.88-2.84-4.28-1.21-8.56-2.43-12.84-3.64-.58-1.57-1.63-2.59-3.33-2.86-1.14-1.7-2.27-3.41-3.41-5.11-.47-1.07-.95-2.14-1.43-3.2-.21-3.75-.42-7.51-.62-11.26-.35-1.06-.71-2.12-1.07-3.19-.06-1.1-.12-2.21-.17-3.31.2-3.8.83-7.66-1.43-11.16-.18-15.03-.36-30.07-.54-45.1.19-20.91.2-41.83.64-62.74.24-11.24,1.54-22.4,5.59-33.07,1.86-4.9,5.03-7.89,10.16-9.38,21.63-6.28,43.24-12.62,64.77-19.22,39.02-11.96,77.93-24.29,116.98-36.16,37.54-11.41,75.23-22.37,112.8-33.69,11.59-3.49,23.02-7.49,34.49-11.36,4.13-1.39,8.31-2.22,12.66-2.27,2.09.14,4.17.29,6.26.43ZM627.49,581.74c.18,0,.37,0,.55-.01-.67-12.05-.8-24.17-2.16-36.14-1.69-14.88-2.81-30.02-9.62-43.8-6.7-13.56-15.94-14.81-26.42-3.72-6.74,7.14-11.04,15.81-15.24,24.53-4.89,10.16-9.68,20.37-14.85,30.38-2.05,3.96-4.53,9.32-9.72,8.32-5.8-1.12-5.36-7.41-5.85-12.01-1.02-9.6-1.38-19.27-2.25-28.89-.67-7.49-1.72-14.95-5.28-21.77-4.54-8.7-12.2-10.5-20.04-4.53-5.94,4.52-9.62,10.81-12.76,17.38-5.09,10.65-9.77,21.5-15.09,32.04-2.6,5.15-5.52,11.85-12.49,10.79-6.63-1-6.81-8.3-8.29-13.53-2.12-7.47-3.09-15.28-7.35-22.04-5.45-8.63-14.25-9.92-21.83-2.99-5.23,4.77-8.6,10.94-12.18,16.95-2.32,3.9-4.64,7.94-7.66,11.28-4.32,4.79-7.81,3.98-10.22-1.97-1.84-4.52-2.24-9.37-2.67-14.19-.76-8.55-1.16-17.16-3.63-25.46-1.58-5.31-4.01-10.32-10.09-11.43-6.36-1.16-9.78,3.35-12.86,7.93-3.63,5.39-5.96,11.38-8.32,17.39-2.55,6.49-4.98,13.08-8.26,19.21-2.85,5.34-6.76,5.06-9.38-.39-1.61-3.34-2.52-7.07-3.33-10.71-1.68-7.59-2.84-15.32-5.71-22.59-1.87-4.74-3.6-10.05-9.62-10.84-6.5-.85-9.6,4.22-12.36,8.76-8.2,13.49-12.36,28.47-15.73,43.73-1.17,5.29.7,8.28,5.93,9.34,5.01,1.02,9.21.59,10.42-5.56,1.04-5.26,2.02-10.55,3.42-15.72.95-3.52,1.58-8.17,6.19-8.45,4.56-.27,6,4.11,7.19,7.59,2.43,7.1,4.3,14.38,6.66,21.51,1.53,4.63,3.39,9.4,9.23,10.01,6.32.66,9.08-4.08,11.41-8.62,3.06-5.96,5.34-12.31,8.39-18.28,1.63-3.19,3.27-7.65,7.94-6.72,4.09.81,4.24,5.13,4.83,8.51,1.11,6.34,1.87,12.74,3.03,19.07,3.04,16.57,13.15,25.48,28.36,11.61.39-.36.87-.63,1.33-.91,13.44-8.07,27.32-4.39,34.97,9.3.78,1.4,1.35,2.93,2.14,4.33,6.6,11.73,16.19,13.01,25.47,3.35,5.67-5.9,9.16-13.2,12.9-20.33,3.12-5.94,5.98-12.04,9.57-17.69,2.51-3.95,5.35-8.96,11.14-7.75,5.19,1.08,6.36,6.22,7.32,10.65.96,4.43,1.23,9.02,1.81,13.53,1.64,12.69.41,25.93,6.75,37.74,5.3,9.86,15.7,11.13,23.26,2.85,4.75-5.2,7.99-11.42,10.87-17.81,4.41-9.78,8.62-19.67,13.46-29.24,2.84-5.62,6.02-13.09,13.81-11.19,7.47,1.83,7.35,9.68,7.72,16.1.89,15.36-1.51,30.5-3.2,45.7-1.66,14.84.14,16.98,15.22,19.16,1.6.23,3.21.32,4.82.44,5.75.43,8.42-2.1,8.34-7.96-.15-12.07-.04-24.15-.04-36.22ZM627.16,442.35c-.31,0-.62,0-.93,0,0-8.31.55-16.66-.12-24.92-1.33-16.57-2.78-33.24-8.59-48.98-3.02-8.19-6.03-17.76-16.82-18.46-11.18-.72-16.33,8.03-20.94,16.36-7.08,12.78-10.61,26.91-15.01,40.7-2.45,7.66-4.78,15.4-8.74,22.47-1.57,2.8-3.45,5.94-7.38,5.05-3.56-.81-3.96-4.35-4.12-7.14-.4-6.95-.25-13.94-.35-20.91-.14-9.64.84-19.36-1.57-28.85-3.02-11.91-12.18-14.97-21.95-7.41-4.11,3.19-6.99,7.37-9.54,11.85-6.54,11.51-10.56,24.05-15.28,36.31-2.99,7.77-5.84,15.65-10.96,22.33-2.58,3.37-5.55,7.26-10.55,6.04-4.41-1.07-5.82-5.21-6.93-9.17-1.6-5.68-2.82-11.49-4.8-17.03-1.88-5.25-3.79-11.06-10.5-12.12-7.07-1.11-11.94,2.87-15.45,8.26-4.98,7.63-9.29,15.7-14.22,23.37-2.81,4.36-5.06,10.93-11.45,9.84-6.83-1.17-6.71-8.27-7.77-13.65-1.77-8.93-1.9-18.16-4.98-26.86-1.39-3.92-3.21-7.57-7.91-8.23-4.92-.7-8.15,2.09-10.71,5.82-3.86,5.62-5.8,12.04-7.83,18.45-2.67,8.43-5.41,16.85-8.42,25.16-1.19,3.27-3.09,6.82-7.31,6.41-3.85-.38-4.55-4.15-5.54-7.17-2.91-8.92-5.55-17.93-8.64-26.78-1.35-3.86-3.79-7.47-8.35-7.89-4.8-.44-7.05,3.37-9.03,6.9-9.32,16.6-13.66,34.89-17.95,53.18-.45,1.92-.34,3.6,1.81,4.75,5.65,3.03,14.41-.52,16.17-6.89,1.65-5.94,2.82-12.01,4.41-17.96.84-3.14,2.16-6.67,5.93-6.78,3.93-.12,4.93,3.7,6.04,6.66,2.53,6.77,3.96,13.98,7.81,20.22,3.95,6.43,9.43,6.98,14.49,1.42,3.85-4.22,6.17-9.4,8.31-14.64,2.03-4.96,3.93-9.99,6.19-14.85,1.3-2.8,2.3-6.79,6.29-6.39,4.39.44,4.56,4.76,5.33,8.06,1.66,7.04,2.52,14.32,4.78,21.15,3.99,12.08,13.02,14.01,22.15,5.12,4.23-4.12,7.81-8.89,12.71-12.32,9.9-6.94,19.25-5.91,27.24,3.17,2.3,2.62,4.23,5.57,6.55,8.17,7.64,8.56,15.33,8.76,23.45.52,5.55-5.64,9.19-12.53,12.3-19.71,4.9-11.32,9.64-22.72,14.75-33.95,1.4-3.07,3.41-6.92,7.48-6.38,4.48.6,5.44,4.91,5.8,8.67,1.12,11.74,1.93,23.51,2.9,35.26.38,4.57,1.28,9.03,3.32,13.19,5.02,10.24,13.2,11.77,21.2,3.75,2.44-2.45,4.53-5.32,6.4-8.24,6.26-9.77,10.42-20.56,15.1-31.11,3.69-8.31,6.61-17.1,12.63-24.16,4.92-5.77,10.75-4.84,13.77,2.09,2.29,5.26,2.72,10.97,2.4,16.61-.69,12.31-1.71,24.61-2.55,36.92-.7,10.27,1.11,12.48,10.42,12.95,10.86.54,14.84-2.42,15.04-11.65.19-8.85.04-17.7.04-26.55ZM642.46,314.56c.42-11.56-2.1-13.43-11.79-10.35-8.21,2.61-16.46,5.09-24.65,7.78-97.77,32.03-196.68,60.31-295.58,88.58-4.28,1.22-12.67.34-10.86,7.42,1.58,6.18,8.45,2.19,12.71,1.21,107.06-24.8,213.45-52.23,319.25-81.91,8.06-2.26,11.19-6.5,10.93-12.73ZM642.52,656.89c.12-8.96-2.61-12.74-11.22-14.9-18.53-4.66-37.11-9.12-55.64-13.81-57.13-14.46-114.29-28.81-171.35-43.56-31.26-8.08-62.32-16.96-93.53-25.25-4.02-1.07-10.07-4.12-11.72,2.08-1.38,5.2,4.92,5.34,8.48,6.46,107.25,33.95,215.29,65.3,323.24,96.94,8.91,2.61,11.62.81,11.74-7.96ZM452.7,506.96c6.96-.68,13.97-1.04,20.87-2.13,5.71-.91,8.67-5.08,7.12-10.54-1.69-5.97-6.36-3.38-9.95-1.8-13.09,5.77-26.14,5.49-39.26.19-3.94-1.59-8.61-4.55-10.57,1.88-1.84,6.03,2.21,8.82,7.63,9.94,7.95,1.64,16.02,2.04,24.15,2.46ZM430.26,404.37c9.66-.38,17.38-1.5,24.88-3.66,6.44-1.85,12.89-3.79,19.07-6.33,4.98-2.05,6.75-6.89,4.37-11.35-2.85-5.34-6.78-1.53-10.15.42-3.47,2.01-6.87,4.17-10.45,5.98-9.56,4.84-19.71,4.48-29.97,3.23-3.36-.41-6.81-.22-7.34,4.16-.5,4.15,1.8,6.55,5.83,7.24,1.84.31,3.73.31,3.76.31Z"/>
      <path class="cls-1" d="M662.16,397.13c-2.58-8.51-2.37-17.05-.23-25.61,2.78,8.51,2.41,17.05.23,25.61Z"/>
      <path class="cls-1" d="M663.5,485.79c-2.02-8.01-2.33-16.01.14-24,2.36,8.01,2.58,16.01-.14,24Z"/>
      <path class="cls-1" d="M663.48,498.69c-1.36-2.12-1.36-4.25,0-6.36,1.73,2.12,1.73,4.25,0,6.36Z"/>
      <path class="cls-1" d="M285.13,539.08c2.25,3.49,1.62,7.35,1.43,11.16-4.42-3.22-3.23-7.15-1.43-11.16Z"/>
      <path class="cls-1" d="M309.42,582.82c2.18,0,3.73,1.08,4.88,2.84-3.18,1.69-4.05-.53-4.88-2.84Z"/>
      <path class="cls-1" d="M286.73,553.54c.36,1.06.72,2.13,1.07,3.19-1.42-.71-1.99-1.7-1.07-3.19Z"/>
      <path class="cls-1" d="M288.42,567.99c.48,1.07.95,2.14,1.43,3.2-1.64-.55-2.52-1.44-1.43-3.2Z"/>
      <path class="cls-1" d="M293.25,576.31c1.7.28,2.76,1.29,3.33,2.86-1.61-.38-2.72-1.34-3.33-2.86Z"/>
      <path class="cls-3" d="M627.49,581.74c0,12.07-.1,24.15.04,36.22.07,5.86-2.6,8.4-8.34,7.96-1.61-.12-3.23-.21-4.82-.44-15.08-2.17-16.88-4.31-15.22-19.16,1.7-15.19,4.09-30.34,3.2-45.7-.37-6.41-.24-14.27-7.72-16.1-7.79-1.9-10.96,5.57-13.81,11.19-4.84,9.57-9.05,19.45-13.46,29.24-2.88,6.4-6.12,12.61-10.87,17.81-7.56,8.28-17.96,7.01-23.26-2.85-6.35-11.81-5.11-25.05-6.75-37.74-.58-4.52-.85-9.1-1.81-13.53-.96-4.43-2.13-9.57-7.32-10.65-5.79-1.21-8.63,3.8-11.14,7.75-3.59,5.65-6.46,11.75-9.57,17.69-3.74,7.13-7.23,14.43-12.9,20.33-9.28,9.66-18.87,8.38-25.47-3.35-.79-1.4-1.36-2.93-2.14-4.33-7.65-13.69-21.53-17.38-34.97-9.3-.46.28-.94.55-1.33.91-15.21,13.87-25.31,4.96-28.36-11.61-1.16-6.33-1.93-12.73-3.03-19.07-.59-3.38-.75-7.7-4.83-8.51-4.67-.92-6.31,3.54-7.94,6.72-3.05,5.96-5.32,12.32-8.39,18.28-2.33,4.53-5.09,9.28-11.41,8.62-5.84-.61-7.7-5.38-9.23-10.01-2.36-7.13-4.23-14.41-6.66-21.51-1.19-3.48-2.63-7.86-7.19-7.59-4.61.28-5.24,4.93-6.19,8.45-1.4,5.17-2.38,10.46-3.42,15.72-1.22,6.15-5.41,6.58-10.42,5.56-5.23-1.06-7.1-4.05-5.93-9.34,3.37-15.26,7.53-30.24,15.73-43.73,2.76-4.54,5.85-9.62,12.36-8.76,6.02.79,7.76,6.1,9.62,10.84,2.87,7.28,4.02,15,5.71,22.59.81,3.64,1.72,7.37,3.33,10.71,2.62,5.45,6.53,5.73,9.38.39,3.28-6.13,5.71-12.72,8.26-19.21,2.36-6.01,4.69-12.01,8.32-17.39,3.08-4.57,6.5-9.08,12.86-7.93,6.09,1.11,8.51,6.12,10.09,11.43,2.47,8.29,2.87,16.91,3.63,25.46.43,4.82.83,9.67,2.67,14.19,2.41,5.95,5.9,6.76,10.22,1.97,3.02-3.35,5.33-7.38,7.66-11.28,3.58-6.01,6.95-12.18,12.18-16.95,7.59-6.92,16.39-5.64,21.83,2.99,4.26,6.75,5.23,14.57,7.35,22.04,1.48,5.23,1.65,12.53,8.29,13.53,6.97,1.06,9.89-5.64,12.49-10.79,5.31-10.54,9.99-21.39,15.09-32.04,3.14-6.57,6.82-12.86,12.76-17.38,7.84-5.96,15.5-4.17,20.04,4.53,3.56,6.82,4.61,14.28,5.28,21.77.86,9.62,1.23,19.29,2.25,28.89.49,4.59.05,10.88,5.85,12.01,5.18,1,7.67-4.37,9.72-8.32,5.18-10.01,9.97-20.22,14.85-30.38,4.2-8.73,8.5-17.4,15.24-24.53,10.47-11.09,19.72-9.83,26.42,3.72,6.81,13.78,7.93,28.92,9.62,43.8,1.36,11.98,1.48,24.09,2.16,36.14-.18,0-.37.01-.55.01ZM451.58,539.75c-1.47-3.08,0-9.7-5.35-9.63-4.45.05-5.4,6.12-6.26,10.23-1,4.78,2.81,5.08,6.12,5.18,3.39.1,5.82-1.16,5.49-5.78Z"/>
      <path class="cls-3" d="M627.16,442.35c0,8.85.15,17.7-.04,26.55-.19,9.22-4.18,12.19-15.04,11.65-9.31-.46-11.12-2.68-10.42-12.95.84-12.31,1.85-24.6,2.55-36.92.32-5.64-.11-11.34-2.4-16.61-3.02-6.93-8.85-7.86-13.77-2.09-6.02,7.06-8.94,15.84-12.63,24.16-4.68,10.54-8.83,21.34-15.1,31.11-1.87,2.92-3.96,5.79-6.4,8.24-8.01,8.02-16.18,6.5-21.2-3.75-2.04-4.16-2.94-8.62-3.32-13.19-.97-11.75-1.79-23.52-2.9-35.26-.36-3.76-1.32-8.07-5.8-8.67-4.06-.54-6.08,3.31-7.48,6.38-5.11,11.23-9.85,22.63-14.75,33.95-3.11,7.18-6.75,14.07-12.3,19.71-8.12,8.25-15.81,8.05-23.45-.52-2.32-2.6-4.25-5.55-6.55-8.17-7.99-9.08-17.34-10.12-27.24-3.17-4.9,3.44-8.48,8.21-12.71,12.32-9.13,8.89-18.15,6.96-22.15-5.12-2.26-6.83-3.12-14.11-4.78-21.15-.78-3.29-.95-7.62-5.33-8.06-3.98-.4-4.99,3.59-6.29,6.39-2.26,4.86-4.16,9.89-6.19,14.85-2.14,5.24-4.46,10.42-8.31,14.64-5.07,5.56-10.54,5-14.49-1.42-3.84-6.24-5.28-13.45-7.81-20.22-1.1-2.96-2.1-6.77-6.04-6.66-3.77.11-5.09,3.64-5.93,6.78-1.59,5.96-2.76,12.03-4.41,17.96-1.77,6.37-10.52,9.91-16.17,6.89-2.14-1.15-2.26-2.83-1.81-4.75,4.29-18.29,8.63-36.58,17.95-53.18,1.98-3.53,4.23-7.34,9.03-6.9,4.56.42,7,4.04,8.35,7.89,3.09,8.85,5.73,17.87,8.64,26.78.99,3.02,1.69,6.79,5.54,7.17,4.22.42,6.13-3.13,7.31-6.41,3.01-8.31,5.76-16.73,8.42-25.16,2.03-6.41,3.97-12.84,7.83-18.45,2.56-3.73,5.78-6.52,10.71-5.82,4.7.66,6.52,4.31,7.91,8.23,3.08,8.69,3.21,17.93,4.98,26.86,1.07,5.39.94,12.48,7.77,13.65,6.39,1.09,8.64-5.47,11.45-9.84,4.94-7.67,9.24-15.74,14.22-23.37,3.52-5.39,8.39-9.37,15.45-8.26,6.71,1.05,8.62,6.86,10.5,12.12,1.98,5.54,3.2,11.35,4.8,17.03,1.11,3.96,2.53,8.1,6.93,9.17,5,1.22,7.97-2.67,10.55-6.04,5.12-6.68,7.96-14.57,10.96-22.33,4.72-12.26,8.74-24.8,15.28-36.31,2.54-4.48,5.43-8.66,9.54-11.85,9.77-7.57,18.92-4.51,21.95,7.41,2.41,9.5,1.43,19.21,1.57,28.85.1,6.97-.05,13.95.35,20.91.16,2.79.55,6.34,4.12,7.14,3.93.89,5.82-2.25,7.38-5.05,3.96-7.07,6.29-14.8,8.74-22.47,4.41-13.79,7.94-27.92,15.01-40.7,4.61-8.32,9.76-17.08,20.94-16.36,10.8.69,13.8,10.27,16.82,18.46,5.81,15.74,7.26,32.41,8.59,48.98.66,8.26.12,16.61.12,24.92.31,0,.62,0,.93,0ZM444.56,444.08c4.18-.25,8.18-.93,7.14-6.28-.76-3.92-.65-10.49-5.63-9.94-5.25.58-6.47,7.38-7.51,12.11-.93,4.28,3.38,3.7,6,4.11Z"/>
      <path class="cls-5" d="M642.46,314.56c.26,6.23-2.87,10.47-10.93,12.73-105.81,29.68-212.19,57.11-319.25,81.91-4.26.99-11.13,4.98-12.71-1.21-1.81-7.08,6.58-6.2,10.86-7.42,98.91-28.28,197.81-56.55,295.58-88.58,8.19-2.68,16.44-5.16,24.65-7.78,9.69-3.09,12.22-1.21,11.79,10.35Z"/>
      <path class="cls-5" d="M642.52,656.89c-.12,8.77-2.83,10.57-11.74,7.96-107.95-31.64-215.99-62.99-323.24-96.94-3.56-1.13-9.86-1.27-8.48-6.46,1.65-6.21,7.7-3.15,11.72-2.08,31.21,8.3,62.27,17.17,93.53,25.25,57.06,14.75,114.22,29.1,171.35,43.56,18.52,4.69,37.11,9.15,55.64,13.81,8.6,2.16,11.34,5.94,11.22,14.9Z"/>
      <path class="cls-3" d="M452.7,506.96c-8.14-.42-16.2-.82-24.15-2.46-5.42-1.12-9.47-3.92-7.63-9.94,1.96-6.43,6.63-3.47,10.57-1.88,13.11,5.3,26.16,5.59,39.26-.19,3.59-1.58,8.25-4.17,9.95,1.8,1.55,5.46-1.41,9.63-7.12,10.54-6.89,1.1-13.91,1.46-20.87,2.13Z"/>
      <path class="cls-3" d="M430.26,404.37s-1.93,0-3.76-.31c-4.02-.69-6.33-3.09-5.83-7.24.53-4.38,3.98-4.57,7.34-4.16,10.26,1.25,20.42,1.61,29.97-3.23,3.58-1.81,6.98-3.97,10.45-5.98,3.36-1.95,7.29-5.76,10.15-.42,2.38,4.46.61,9.29-4.37,11.35-6.18,2.55-12.63,4.48-19.07,6.33-7.5,2.16-15.22,3.28-24.88,3.66Z"/>
      <path class="cls-2" d="M540.4,653.26l-.47.39s-.05-.62-.05-.62c0,0,.52.23.52.23Z"/>
      <path class="cls-8" d="M451.58,539.75c.33,4.62-2.1,5.88-5.49,5.78-3.31-.1-7.12-.4-6.12-5.18.86-4.11,1.81-10.18,6.26-10.23,5.34-.06,3.88,6.55,5.35,9.63Z"/>
      <path class="cls-8" d="M444.56,444.08c-2.62-.4-6.94.17-6-4.11,1.03-4.73,2.25-11.53,7.51-12.11,4.98-.55,4.87,6.02,5.63,9.94,1.04,5.35-2.95,6.02-7.14,6.28Z"/>
    </g>
    <g>
      <path class="cls-7" d="M441.91,663.67c1.21-3.24,2.36-6.51,3.65-9.71,1.11-2.75,1.25-6.78,5.97-5.55,3.72.97,4.65,3.93,4.55,7.35-.21,7.36-.3,14.73-.78,22.07-.17,2.55-.03,6.46-4.08,6.02-3.65-.4-3.31-3.9-3.35-6.72-.03-1.7-.16-3.4-.29-5.88-4.55,1.79-6.89,16.58-13.07,2.47-.09-.21-.55-.32-.85-.36-9.42-1.21-9.49-1.21-8.71-10.87.39-4.89,1.06-9.76,1.66-14.63.28-2.32-.24-5.48,3.31-5.51,3.32-.03,6.2,1.18,6.88,5.13.94,5.43,2,10.83,3.01,16.24.7-.02,1.4-.03,2.1-.05Z"/>
      <path class="cls-7" d="M503.4,679.04c4.7-3.25-1.49-12.53,5.8-11.48,6.72.97,3.57,8.81,3.48,13.54-.13,6.67,2.35,17.3-3.99,18.87-7.78,1.93-6.07-9.88-10.21-14.57-.38-.43-1.1-.57-1.65-.83-4.13,2.63,1.28,12.17-6.13,10.77-7.36-1.39-2.7-8.71-2.87-13.43-.18-4.88.13-9.78.46-14.66.15-2.2-.93-5.43,2.6-5.89,2.66-.34,4.61,1.52,5.78,3.82,2.31,4.55,4.48,9.17,6.75,13.86Z"/>
      <path class="cls-7" d="M376.86,646.47c-4,4.02,1.46,12.92-6.06,12.03-6.3-.74-2.88-8.2-3.1-12.66-.26-5.22.42-10.49.81-15.73.15-2.04.07-4.69,2.4-5.33,2.59-.71,5.01.9,6.13,3.14,2.46,4.95,4.48,10.11,6.66,15.16,3.69-.67,2.13-3.33,2.69-5.03.89-2.66-1.86-7.52,2.72-7.71,4.75-.2,4.46,4.34,4.2,7.95-.44,6.29-.65,12.6-1.31,18.87-.27,2.6-.32,6.1-4.17,6.26-2.9.12-3.95-2.44-5.03-4.7-1.91-3.99-2.33-8.73-5.95-12.27Z"/>
      <path class="cls-7" d="M419.82,661.39c0,2.11.01,4.21,0,6.31-.02,2.08.3,4.67-2.49,4.98-2.7.3-4.61-1.22-5.08-4.16-1.35-8.43-3.77-12.74-9.86-2.48-1.03,1.73-2.53,2.25-4.46,1.51-2.47-.95-2.9-2.91-2.34-5.12,1.97-7.8,4.02-15.58,6.1-23.35.95-3.56,3.57-3.78,6.64-3.17,4.17.83,8.64,1.25,9.34,6.72.81,6.24,1.45,12.5,2.15,18.77Z"/>
      <path class="cls-7" d="M575.14,714.39c.62-6.02.59-10.68,1.69-15.04.97-3.84-3.43-11.15,5.34-10.68,9.27.49,15.77,7.11,14.82,14.41-.34,2.66-2.37,5.04-.49,7.96,2.67,4.15,3.79,8.84-.29,12.45-5.09,4.5-10.63,1.11-15.86-.51-5.09-1.57-5.93-5.46-5.21-8.6ZM591.92,715.17c-.4-3.24-2.9-4.35-5.64-5.12-2.38-.66-3.04.85-3.17,2.79-.19,2.89,1.3,4.53,4.05,5.06,2.28.44,4.12-.04,4.76-2.74ZM590.82,699.84c-.56-2.21-2.02-3.61-4.24-3.74-2.84-.17-3.3,1.99-3.05,4.11.28,2.46,2.13,3.39,4.4,3.08,1.81-.25,3.08-1.32,2.9-3.44Z"/>
      <path class="cls-7" d="M555.3,699.19c0,1.19.26,2.98-.05,4.67-.64,3.42,2.42,8.84-2.78,9.78-4.92.89-3.75-4.56-4.82-7.6-1.78-5.05-4.64-6.09-7.91-1.17-1.51,2.28-2.07,5.64-5.96,3.72-3.59-1.77-1.99-4.82-1.37-7.35,1.49-6.09,3.14-12.15,4.94-18.15.99-3.29,1.9-7.23,6.73-6.32,4.4.83,9.4,1.37,10.08,7.29.56,4.84.76,9.72,1.16,15.14ZM546.26,684.56c-3.14.56-3.1,3.25-3.66,5.49-.51,2.06-.87,4.31,1.93,4.92,3.4.75,4.11-1.61,4.14-4.25.02-2.33.48-4.92-2.42-6.17Z"/>
      <path class="cls-7" d="M287.66,621.71c4.26-5.68,4.79-10.53,5.9-15.13.57-2.36.67-5.24,4.28-4.57,2.88.53,4.4,2.48,3.48,5.34-2.57,7.99-4.73,16.21-8.3,23.75-2.73,5.78-7.98,3.09-9.76-.69-4.5-9.53-5.66-20.14-7.5-30.46-.34-1.88.61-3.47,2.88-3.43,3.36.05,5.08,2.04,5.63,5.15,1.06,6.04,2.05,12.09,3.38,20.06Z"/>
      <path class="cls-7" d="M317.53,633.28c.43-4.53,1.47-9.1,1.16-13.58-.73-10.76,4.94-10.47,12.35-7.75,2.5.92,6.27,1.05,5.93,4.74-.32,3.51-3.72,2.11-5.97,2.38-1.37.17-2.9.22-3.18,2-.36,2.26,1.55,2.88,3,3.71,1.8,1.03,4.34,1.76,3.92,4.27-.67,3.98-3.6,2.02-5.8,1.64-2.19-.38-3.32.64-3.53,2.69-.19,1.87.49,3.44,2.25,4.33,2.18,1.1,4.56,1.89,6.53,3.28,1.52,1.08,1.57,3.06.74,4.78-.7,1.43-1.99,1.52-3.51,1.51-9.19-.09-14.34-5.23-13.89-14.02Z"/>
      <path class="cls-7" d="M642.61,726.12c0-2.45-.21-4.91.05-7.33.36-3.33-1.21-8.13,2.64-9.41,4.74-1.57,9.45,1.38,13.89,3.33,1.28.56,2.02,1.97,1.42,3.52-.83,2.15-2.65,1.77-4.4,1.63-1.89-.15-4.39-1.73-5.17,1.41-.68,2.73,1.75,3.4,3.58,4.34,2.15,1.11,4.95,1.94,4.04,5.16-.84,2.96-3.33,1.6-5.26,1.4-2.07-.22-3.35.64-3.8,2.64-.45,2,.58,3.29,2.23,4.23,3.02,1.73,8.6.68,7.99,6.39-.36,3.35-3.54,3.1-5.86,2.26-4.83-1.75-12.03-.65-11.8-9.08.1-3.49.02-6.99.02-10.48.15,0,.3,0,.44,0Z"/>
      <path class="cls-7" d="M348.5,636.65c-.32-4.17,2.99-11.16-5.1-14.71-.63-.28-.92-3.41-.53-3.62,5.64-2.93,10.65.84,15.89,1.94,2.56.54,5.66,1.31,5.78,5.01.01.32-.15.9-.34.95-12.94,3.7-6.25,14.54-8.11,22.24-.53,2.21.34,5.43-3.34,5.33-2.9-.08-4.19-2.24-4.24-5.01-.06-3.49-.02-6.98-.02-12.14Z"/>
      <path class="cls-7" d="M624.56,722.47c.39-6.07,2.9-12.77-5.29-16.16-1.76-.73-2.26-2.82-1.35-4.53,1-1.88,2.86-1.55,4.61-.96,4.32,1.47,8.83,2.53,12.92,4.48,3.87,1.84,7.57,4.4.07,7-6.79,2.35-2.45,8.45-3.84,12.64-1.4,4.24,3.03,12.29-3.16,12.35-7.59.07-3.25-8.13-4.14-12.73-.13-.66.11-1.39.18-2.09Z"/>
      <path class="cls-7" d="M313.95,619.05c-.59,5.62-1.07,10.83-1.71,16.02-.3,2.39-.49,5.25-4.08,4.74-2.52-.35-3.4-2.4-3.23-4.63.66-8.69,1.43-17.36,2.26-26.04.17-1.81,1.02-3.43,3.22-3.31,1.94.1,3.39,1.24,3.49,3.2.18,3.47.05,6.95.05,10.02Z"/>
      <path class="cls-7" d="M612.51,713.49c-2.19,5.7,2.65,16.34-5.29,16.3-5.98-.03-2.79-10.7-2.43-16.39.35-5.43-3.06-15.54,4.4-15.35,6.51.17,1.48,10.09,3.32,15.43Z"/>
      <path class="cls-7" d="M481.48,672.36c0,1.27.08,1.64-.01,1.96-1.61,5.44,2.94,15.81-4.65,15.41-6.56-.34-3.07-10.68-2.63-16.37.41-5.36-1.71-15.53,3.94-15.2,7.5.45,1.48,9.94,3.35,14.19Z"/>
    </g>
  </g>
</svg>